<svg clip-rule="evenodd" fill-rule="evenodd" stroke-linejoin="round" stroke-miterlimit="2" viewBox="0 0 1186 200" xmlns="http://www.w3.org/2000/svg"><g transform="scale(.942766 1.06407)"><path d="m0 0h1258v187.287h-1258z" fill="none"/><g fill-rule="nonzero"><path d="m.17.187c-.033 0-.06-.01-.079-.031s-.029-.049-.027-.083c-.002-.037.003-.084.012-.143.01-.059.025-.124.044-.196-.026-.017-.047-.034-.064-.051s-.025-.032-.025-.045c0-.02.01-.036.03-.048.02-.013.044-.019.073-.019l.037-.001c.025-.079.05-.14.074-.185s.049-.077.076-.096.057-.029.092-.029c.049 0 .088.013.115.04s.044.068.05.123l-.099.045c-.002-.043-.009-.072-.019-.088-.011-.016-.028-.024-.052-.024-.015 0-.029.006-.041.016s-.025.031-.041.062c-.015.031-.033.076-.054.137h.226l-.02.096h-.238c-.001.003-.001.005-.002.008 0 .002-.002.004-.003.007.04.034.072.071.096.111s.035.08.035.118c0 .053-.008.1-.023.142-.016.042-.039.074-.068.098-.03.024-.065.036-.105.036zm-.022-.542c-.003-.001-.009-.003-.018-.005-.009-.003-.017-.005-.023-.005-.004 0-.007.001-.009.003-.006.008.008.017.043.028zm.033.446c.017 0 .032-.007.046-.022.013-.014.024-.035.032-.06.008-.026.012-.055.012-.086 0-.034-.023-.075-.068-.123-.014.05-.024.097-.031.142-.007.045-.01.085-.011.119.001.009.004.016.007.022.004.005.008.008.013.008z" transform="matrix(203.65632 0 -17.817594438 180.43872 9.87085495 147.857653275)"/><path d="m.51-.043c-.008.017-.023.03-.047.04-.023.011-.047.016-.071.016s-.045-.006-.061-.019c-.016-.012-.024-.028-.026-.046-.001.005-.002.01-.004.014s-.003.007-.002.01c-.018.013-.037.023-.057.03s-.04.011-.06.011c-.035 0-.066-.008-.092-.023-.027-.014-.047-.035-.061-.062s-.02-.058-.019-.093c0-.068.016-.134.047-.197.032-.064.073-.115.123-.154s.1-.059.15-.059c.053 0 .092.009.116.025s.036.042.036.075l.001.008c0 .009-.006.041-.018.097-.012.055-.03.14-.056.254-.002.014-.004.022-.004.023 0 .004.002.006.004.008.002.001.006.001.011.001.008 0 .016-.004.025-.012.008-.008.016-.019.023-.032zm-.316-.041c.026 0 .054-.015.081-.045.028-.03.05-.066.066-.107.008-.048.018-.095.028-.142.009-.043.014-.07.016-.081-.002-.007-.007-.012-.015-.015-.009-.003-.026-.004-.052-.004-.028 0-.059.015-.093.045-.033.031-.061.069-.084.116-.023.046-.035.093-.036.14.001.028.01.051.026.068s.037.025.063.025z" transform="matrix(203.65632 0 -17.817594438 180.43872 110.58845158 147.857653275)"/><path d="m.517-.122c-.009.04-.03.072-.061.097s-.065.038-.102.038c-.034 0-.061-.011-.081-.033-.02-.021-.029-.049-.028-.085-.002-.043.004-.086.017-.127.013-.042.035-.093.068-.153-.045.017-.085.026-.12.027-.028.059-.068.114-.119.165l-.056-.08c.034-.032.062-.065.083-.099-.025-.009-.045-.022-.059-.039s-.021-.037-.02-.059c-.002-.03.008-.055.03-.075.021-.02.048-.03.081-.03.028 0 .05.01.067.03.016.019.024.044.023.076v.013c.028-.005.061-.015.099-.032s.075-.038.109-.062l.065.045c-.057.081-.1.153-.129.215-.029.063-.044.121-.043.174.002.01.005.018.009.024.005.005.01.008.015.008.014 0 .027-.006.039-.019.011-.013.018-.029.021-.049zm-.409-.365c0 .01.004.018.012.022.009.005.021.008.037.01.001-.01.002-.017.002-.02 0-.011-.002-.021-.006-.029-.005-.008-.01-.011-.016-.011-.008 0-.015.002-.021.008-.005.006-.008.012-.008.02z" transform="matrix(203.65632 0 -17.817594438 180.43872 211.49061175 147.857653275)"/><path d="m.546-.329c-.013-.001-.03.001-.051.004-.018.065-.042.123-.071.174s-.062.091-.099.12-.076.044-.115.044c-.058 0-.1-.014-.128-.04-.028-.027-.042-.069-.042-.127 0-.026.003-.058.01-.096l.1-.477h.103l-.103.477c-.006.036-.009.064-.009.082 0 .031.006.053.019.066.013.012.034.018.063.018.019 0 .04-.011.062-.034.021-.023.042-.054.062-.093s.037-.081.05-.125c-.028-.005-.05-.015-.066-.033-.015-.017-.023-.039-.023-.067 0-.031.011-.056.032-.075.02-.02.047-.03.079-.03.031 0 .055.01.073.031.017.021.024.05.021.088.014-.002.034-.003.06-.003zm-.173-.119c0 .022.016.033.048.033.002-.013.004-.022.004-.028 0-.021-.009-.032-.025-.032-.009 0-.016.003-.02.008-.005.005-.007.012-.007.019z" transform="matrix(203.65632 0 -17.817594438 180.43872 312.39383263 147.857653275)"/><path d="m.248-.086c.033 0 .068-.01.105-.029s.067-.043.09-.071l.046.085c-.032.034-.072.061-.121.082-.048.021-.094.032-.137.032-.046 0-.084-.014-.114-.043-.031-.028-.049-.065-.053-.111-.017.009-.029.016-.034.022l-.039-.081c.007-.021.032-.038.075-.052.012-.101.045-.18.097-.237.053-.057.12-.086.202-.086.046 0 .081.012.105.036.023.024.035.057.035.102 0 .053-.018.097-.053.131s-.074.059-.119.077c-.045.017-.103.036-.175.056.001.026.01.046.027.063.017.016.038.024.063.024zm.104-.392c-.046 0-.086.017-.119.053-.033.035-.055.085-.067.15.051-.011.093-.021.125-.03.033-.01.06-.025.083-.044.022-.019.033-.044.033-.075 0-.016-.005-.029-.015-.039s-.023-.015-.04-.015z" transform="matrix(203.65632 0 -17.817594438 180.43872 413.2959928 147.857653275)"/><path d="m.531-.043c-.007.017-.023.03-.046.04-.023.011-.047.016-.071.016-.026 0-.047-.007-.061-.02-.015-.014-.023-.031-.024-.054-.002-.03.003-.07.013-.122.011-.051.028-.109.053-.174.01-.028.015-.05.015-.067s-.005-.031-.015-.04c-.009-.009-.023-.014-.04-.014-.019 0-.041.01-.067.03-.027.021-.051.047-.073.079-.023.032-.037.065-.044.098l-.056.271h-.103l.099-.456c0-.002.001-.003.002-.006.001-.002.001-.005 0-.009-.003-.005-.007-.007-.012-.007-.004 0-.009.002-.016.006-.006.004-.017.014-.033.03l-.041-.077c.008-.016.023-.03.047-.04.023-.01.047-.016.071-.016s.045.007.062.021c.018.014.027.03.029.049.024-.024.049-.042.075-.053s.05-.017.072-.017c.047 0 .082.012.106.034s.036.053.036.094c0 .029-.006.063-.019.102-.024.072-.041.127-.051.165-.01.037-.014.067-.011.088.001.006.005.008.014.008.008 0 .016-.004.024-.012.009-.008.016-.019.023-.032z" transform="matrix(203.65632 0 -17.817594438 180.43872 514.2013351 147.857653275)"/><path d="m.517-.122c-.01.04-.031.072-.062.097s-.065.038-.102.038c-.034 0-.06-.011-.08-.033-.02-.021-.03-.049-.029-.085-.002-.043.004-.086.017-.128s.035-.092.068-.152c-.047.018-.088.027-.124.027-.011 0-.02 0-.026-.001-.048.04-.111.06-.188.06-.021 0-.041-.001-.058-.004l-.238-.03c-.002.003-.003.005-.003.008-.001.002-.002.004-.003.007.041.034.073.071.096.111.024.04.036.08.036.118 0 .053-.008.1-.024.142-.015.042-.038.074-.068.098s-.064.036-.104.036c-.034 0-.06-.01-.08-.031-.019-.021-.028-.049-.027-.083-.001-.037.003-.084.013-.143s.024-.124.044-.196c-.027-.017-.048-.034-.065-.051-.016-.017-.025-.032-.025-.045 0-.02.01-.036.03-.048.02-.013.045-.019.073-.019l.037-.001c.026-.079.051-.14.075-.185.023-.045.049-.077.075-.096.027-.019.058-.029.092-.029.05 0 .088.013.116.04.027.027.044.068.05.123l-.099.045c-.003-.043-.009-.072-.02-.088s-.028-.024-.051-.024c-.015 0-.029.006-.041.016s-.026.031-.041.062-.033.076-.055.137l.227.03c.026.004.05.005.071.005.02 0 .036-.001.048-.003-.023-.02-.034-.045-.033-.073-.002-.03.008-.055.029-.075s.048-.03.081-.03c.028 0 .05.01.067.03.017.019.025.044.024.076 0 .005 0 .01-.001.013.028-.005.061-.015.099-.032s.074-.038.109-.062l.066.045c-.057.081-.1.153-.13.215-.029.063-.044.121-.043.174.002.01.005.018.01.024.004.005.009.008.015.008.013 0 .026-.006.038-.019.011-.013.019-.029.022-.049zm-.38-.393c-.008 0-.015.002-.021.008-.005.005-.008.012-.008.02 0 .01.004.018.012.022.008.005.02.008.036.01.002-.007.003-.013.003-.02 0-.011-.002-.021-.006-.029-.005-.008-.01-.011-.016-.011zm-.534.16c-.003-.001-.009-.003-.018-.005-.01-.003-.017-.005-.023-.005-.004 0-.007.001-.009.003-.007.008.007.017.042.028zm.122.278c0-.034-.022-.075-.068-.123-.013.05-.023.097-.03.142-.007.045-.011.085-.012.119.002.009.004.016.008.022.003.005.008.008.012.008.017 0 .033-.007.046-.022.014-.014.025-.035.033-.06.008-.026.011-.055.011-.086z" transform="matrix(203.65632 0 -17.817594438 180.43872 716.0014126 147.857653275)"/><path d="m.215.013c-.063 0-.109-.013-.136-.038-.028-.025-.042-.066-.042-.122 0-.033.006-.079.017-.138.009-.053.028-.103.055-.147s.059-.079.098-.104c.039-.026.08-.039.124-.039.063 0 .109.013.138.038.028.025.043.064.043.119 0 .036-.007.083-.02.141-.013.054-.033.104-.059.147-.027.044-.059.079-.097.105-.037.025-.078.038-.121.038zm.012-.097c.024 0 .048-.009.072-.027s.045-.042.063-.073.03-.064.037-.101c.008-.045.012-.079.012-.102 0-.034-.007-.057-.021-.071-.015-.013-.038-.02-.072-.02-.023 0-.047.009-.07.027s-.043.042-.061.072c-.018.031-.032.065-.041.102-.009.041-.014.076-.014.104 0 .033.007.056.023.069.015.014.039.02.072.02z" transform="matrix(203.65632 0 -17.817594438 180.43872 816.9067549 147.857653275)"/><path d="m.523-.043c-.008.017-.024.03-.047.04-.023.011-.047.016-.071.016-.027 0-.047-.007-.063-.02-.015-.014-.023-.031-.022-.054-.002-.024.003-.057.013-.1.011-.043.029-.108.054-.195.008-.025.011-.046.011-.063 0-.039-.02-.059-.062-.059-.02 0-.045.011-.073.033-.028.023-.054.052-.077.088s-.039.073-.047.111l-.051.246h-.103l.154-.727h.103l-.046.217c.048-.043.099-.065.153-.065.099 0 .148.043.148.129 0 .029-.005.063-.016.101l-.014.048c-.015.055-.027.098-.035.13s-.012.057-.013.075c.001.006.005.008.014.008.008 0 .016-.004.024-.012.009-.008.017-.019.024-.032z" transform="matrix(203.65632 0 -17.817594438 180.43872 917.8120972 147.857653275)"/><path d="m.219.013c-.027 0-.046-.004-.059-.013-.012-.008-.018-.021-.018-.04 0-.008.001-.019.004-.033.005-.026.014-.044.026-.054.012-.009.033-.014.063-.014.026 0 .046.004.058.012.013.009.019.022.019.041 0 .008-.002.019-.005.033-.005.026-.013.044-.025.054-.012.009-.033.014-.063.014z" transform="matrix(203.65632 0 -17.817594438 180.43872 1002.2127919 147.857653275)"/><path d="m.295.013c-.059 0-.103-.01-.131-.031-.029-.02-.043-.054-.043-.1 0-.034.007-.074.02-.12l.052-.179c.002-.009.003-.015.003-.018 0-.017-.013-.027-.04-.03l.026-.097c.037.005.066.016.087.032.021.017.031.038.031.065 0 .009-.002.021-.006.036l-.054.191c-.01.035-.015.064-.015.088 0 .025.006.042.02.052.013.01.034.014.062.014.014 0 .026-.002.035-.006.01-.004.019-.012.028-.023.01-.011.023-.028.04-.052l.076.054c-.031.047-.061.079-.089.097s-.062.027-.102.027zm.003-.661c-.025 0-.042-.004-.053-.011s-.016-.019-.016-.036c0-.01.001-.02.004-.03.004-.025.012-.041.024-.05s.031-.013.057-.013c.024 0 .041.003.052.01.011.006.017.018.017.034 0 .008-.002.019-.005.033-.004.024-.012.04-.024.049s-.03.014-.056.014z" transform="matrix(203.65632 0 -17.817594438 180.43872 1054.2406174 147.857653275)"/><path d="m.215.013c-.063 0-.109-.013-.136-.038-.028-.025-.042-.066-.042-.122 0-.033.006-.079.017-.138.009-.053.028-.103.055-.147s.059-.079.098-.104c.039-.026.08-.039.124-.039.063 0 .109.013.138.038.028.025.043.064.043.119 0 .036-.007.083-.02.141-.013.054-.033.104-.059.147-.027.044-.059.079-.097.105-.037.025-.078.038-.121.038zm.012-.097c.024 0 .048-.009.072-.027s.045-.042.063-.073.03-.064.037-.101c.008-.045.012-.079.012-.102 0-.034-.007-.057-.021-.071-.015-.013-.038-.02-.072-.02-.023 0-.047.009-.07.027s-.043.042-.061.072c-.018.031-.032.065-.041.102-.009.041-.014.076-.014.104 0 .033.007.056.023.069.015.014.039.02.072.02z" transform="matrix(203.65632 0 -17.817594438 180.43872 1130.7072013 147.857653275)"/></g></g></svg>