<?xml version="1.0" standalone="no"?>
<!DOCTYPE svg PUBLIC "-//W3C//DTD SVG 20010904//EN"
 "http://www.w3.org/TR/2001/REC-SVG-20010904/DTD/svg10.dtd">
<svg version="1.0" xmlns="http://www.w3.org/2000/svg"
 width="700.000000pt" height="700.000000pt" viewBox="0 0 700.000000 700.000000"
 preserveAspectRatio="xMidYMid meet">
<metadata>
Created by potrace 1.14, written by Peter Selinger 2001-2017
</metadata>
<g transform="translate(0.000000,700.000000) scale(0.100000,-0.100000)"
fill="#000000" stroke="none">
<path d="M3347 6924 c-1 -1 -47 -5 -102 -9 -117 -8 -146 -11 -200 -20 -22 -3
-69 -11 -105 -16 -95 -15 -278 -55 -375 -83 -554 -159 -1059 -454 -1468 -859
-222 -220 -373 -412 -544 -692 -57 -92 -144 -264 -208 -410 -75 -170 -179
-503 -199 -639 -4 -21 -8 -41 -10 -45 -2 -3 -7 -31 -11 -61 -4 -30 -8 -57 -10
-60 -2 -3 -6 -37 -10 -75 -4 -39 -9 -79 -11 -90 -23 -121 -22 -601 1 -745 2
-14 6 -45 9 -70 3 -25 8 -54 10 -65 2 -11 7 -45 12 -75 4 -30 8 -57 9 -60 1
-3 7 -32 14 -65 83 -384 258 -811 455 -1113 l45 -69 -14 -54 c-40 -154 -38
-342 5 -483 41 -133 92 -211 210 -326 128 -125 286 -209 450 -241 123 -23 350
-16 471 16 21 5 65 -12 210 -83 101 -49 229 -106 284 -127 55 -20 109 -40 120
-45 45 -18 272 -84 330 -96 11 -2 43 -8 71 -14 28 -6 64 -13 80 -16 16 -2 52
-9 79 -14 28 -5 75 -12 105 -16 30 -3 63 -8 72 -10 90 -16 452 -23 628 -10
122 8 356 41 450 63 36 8 76 17 90 19 107 19 382 110 547 180 826 352 1484
1016 1829 1848 30 71 54 133 54 138 0 6 6 24 14 41 39 91 121 404 141 542 3
22 8 45 10 52 2 7 7 45 11 85 3 40 8 75 10 79 6 11 18 248 18 369 0 118 -11
333 -19 382 -2 13 -9 59 -15 103 -14 109 -17 123 -46 255 -36 165 -118 433
-163 535 -5 11 -22 49 -37 85 -43 100 -144 299 -181 357 -18 29 -33 55 -33 58
0 3 -39 63 -86 133 -366 540 -872 965 -1460 1225 -111 50 -325 129 -412 153
-77 22 -201 53 -232 59 -14 3 -36 7 -50 10 -60 13 -118 24 -160 29 -56 8 -117
16 -150 21 -77 12 -523 27 -533 19z m258 -635 c28 -6 61 -13 74 -15 79 -16
227 -102 300 -175 63 -63 118 -152 144 -234 18 -57 21 -93 21 -200 0 -71 -3
-146 -7 -165 l-7 -35 -131 0 -130 0 5 85 c6 107 -6 155 -51 197 -66 63 -178
75 -276 30 -114 -52 -199 -164 -246 -322 -30 -100 -122 -537 -115 -544 3 -3
94 -6 202 -6 166 -1 197 -3 195 -15 -1 -8 -9 -59 -18 -112 l-17 -98 -209 0
c-115 0 -209 -2 -209 -4 0 -2 -5 -28 -11 -57 -6 -30 -12 -65 -15 -79 -3 -14
-14 -63 -24 -110 -11 -47 -38 -173 -60 -280 -23 -107 -53 -247 -66 -310 -14
-63 -27 -126 -30 -140 -3 -14 -41 -194 -85 -400 -45 -206 -83 -384 -85 -396
-6 -31 -148 -701 -195 -919 -23 -104 -43 -201 -45 -215 -3 -14 -7 -33 -10 -42
-3 -10 -7 -30 -10 -45 -53 -298 -182 -583 -326 -719 -135 -128 -338 -225 -523
-252 -27 -4 -104 -6 -170 -6 -139 1 -203 16 -314 75 -166 89 -261 197 -313
357 -25 79 -30 242 -9 332 20 85 84 209 142 273 128 143 283 226 654 353 77
26 143 50 147 53 6 6 39 141 53 219 3 18 21 106 41 195 30 141 75 349 90 427
4 19 65 301 89 410 2 8 15 74 30 145 26 127 29 143 40 195 3 14 7 34 9 45 3
11 14 63 25 115 44 206 71 336 76 360 2 14 18 86 34 160 16 74 32 146 35 160
2 14 36 174 75 355 38 182 72 344 75 360 3 17 17 75 31 130 14 55 27 107 29
115 12 47 64 175 96 240 73 146 173 262 295 342 126 83 297 150 423 165 26 3
48 7 50 8 8 7 183 2 227 -6z m1430 -1372 c11 -2 38 -10 60 -16 116 -31 215
-144 209 -240 -3 -56 12 -15 35 99 12 58 24 112 26 120 2 8 4 17 4 20 1 4 777
5 804 1 5 0 6 -5 3 -9 -5 -9 -13 -43 -22 -97 -3 -16 -10 -48 -16 -70 -5 -22
-12 -51 -14 -65 -3 -14 -27 -131 -55 -260 -28 -129 -53 -246 -55 -260 -7 -37
-12 -62 -19 -90 -3 -14 -10 -45 -15 -70 -5 -25 -22 -108 -39 -186 -17 -77 -33
-155 -36 -172 -3 -18 -12 -60 -20 -94 -8 -35 -16 -74 -19 -88 -2 -14 -28 -133
-57 -265 -60 -277 -70 -393 -40 -460 24 -52 48 -73 105 -90 47 -14 175 -14
209 0 17 7 17 5 1 -36 -19 -51 -105 -230 -131 -274 -114 -191 -218 -248 -438
-241 -133 4 -208 28 -295 91 -95 71 -183 207 -205 320 -5 22 -9 46 -11 53 -8
44 -16 40 -80 -45 -154 -203 -336 -337 -535 -393 -106 -30 -280 -38 -386 -16
-156 31 -259 88 -373 205 -154 158 -221 385 -215 726 2 72 6 148 9 170 3 22 8
60 11 85 2 25 7 56 10 70 3 14 8 41 11 60 24 137 106 412 168 560 153 365 448
713 721 852 83 43 211 86 303 102 74 14 341 16 387 3z"/>
<path d="M1639 1921 c-183 -74 -316 -155 -396 -240 -50 -52 -93 -149 -105
-234 -9 -65 -8 -78 10 -119 46 -106 190 -157 297 -107 117 55 193 213 259 539
3 14 14 64 24 113 11 48 17 87 14 87 -4 0 -50 -18 -103 -39z"/>
<path d="M4998 4585 c-2 -2 -21 -6 -43 -9 -63 -10 -155 -60 -216 -118 -156
-148 -310 -448 -399 -778 -69 -254 -95 -434 -94 -640 1 -251 36 -341 152 -399
126 -64 274 -22 409 114 124 126 168 249 259 720 2 11 6 29 8 40 63 296 161
754 170 795 7 30 11 70 9 89 -6 69 -81 160 -143 175 -29 7 -108 15 -112 11z"/>
</g>
</svg>
